<svg xmlns="http://www.w3.org/2000/svg" xmlns:xlink="http://www.w3.org/1999/xlink" width="20" height="16" version="1.1" viewBox="0 0 20 16"><title>move left right 1</title><desc>Created with Sketch.</desc><g id="Symbols" fill="none" fill-rule="evenodd" stroke="none" stroke-width="1"><g id="Top-nav" transform="translate(-990.000000, -31.000000)"><g id="move-left-right-1"><g transform="translate(988.000000, 27.000000)"><g id="Group"><g id="Frame_-_24px"><rect id="Rectangle-path" width="24" height="24" x="0" y=".004"/></g><g id="Line_Icons" fill="#525865" transform="translate(2.000000, 4.000000)"><g id="Group"><path id="Shape" d="M4,7 L19,7 C19.404,7 19.77,6.756 19.924,6.383 C20.078,6.009 19.993,5.579 19.707,5.293 L14.707,0.293 L13.293,1.707 L16.586,5 L4,5 L4,7 L4,7 Z"/><path id="Shape" d="M16,9 L1,9 C0.596,9 0.23,9.244 0.076,9.617 C-0.078,9.991 0.007,10.421 0.293,10.707 L5.293,15.707 L6.707,14.293 L3.414,11 L16,11 L16,9 L16,9 Z"/></g></g></g></g></g></g></g></svg>